<svg viewBox="0 0 360 80" xmlns="http://www.w3.org/2000/svg" role="img" aria-label="modelway.dev">
  <title>modelway.dev</title>
  <g transform="translate(8 8) scale(0.64)">
    <g fill="none" stroke="currentColor" stroke-width="1.5" stroke-linecap="round" stroke-linejoin="round" opacity="0.55">
      <polygon points="50,20 76,35 76,65 50,80 24,65 24,35"/>
    </g>
    <g stroke="currentColor" stroke-linecap="round" stroke-width="2">
      <line x1="50" y1="50" x2="50" y2="20"/>
      <line x1="50" y1="50" x2="76" y2="35"/>
      <line x1="50" y1="50" x2="76" y2="65"/>
      <line x1="50" y1="50" x2="50" y2="80"/>
      <line x1="50" y1="50" x2="24" y2="65"/>
      <line x1="50" y1="50" x2="24" y2="35"/>
    </g>
    <g fill="currentColor">
      <circle cx="50" cy="50" r="7"/>
      <circle cx="50" cy="20" r="3.2"/>
      <circle cx="76" cy="35" r="3.2"/>
      <circle cx="76" cy="65" r="3.2"/>
      <circle cx="50" cy="80" r="3.2"/>
      <circle cx="24" cy="65" r="3.2"/>
      <circle cx="24" cy="35" r="3.2"/>
    </g>
  </g>
  <text x="78" y="52" fill="currentColor" font-family="system-ui, -apple-system, BlinkMacSystemFont, 'Segoe UI', Roboto, 'Helvetica Neue', sans-serif" font-weight="600" font-size="34" letter-spacing="-0.8">ModelWay</text>
  <text x="258" y="52" fill="currentColor" opacity="0.5" font-family="ui-monospace, SFMono-Regular, Menlo, Monaco, Consolas, monospace" font-weight="400" font-size="20">.dev</text>
</svg>
